<?xml version="1.0" encoding="UTF-8"?>
<svg  viewBox="0 0 187 218" version="1.1" xmlns="http://www.w3.org/2000/svg" xmlns:xlink="http://www.w3.org/1999/xlink">
    <!-- Generator: Sketch 55 (78076) - https://sketchapp.com -->
    <title>Group</title>
    <desc>Created with Sketch.</desc>
    <g id="Page-1" stroke="none" stroke-width="1" fill="none" fill-rule="evenodd">
        <g id="Logo" transform="translate(-216.000000, -515.000000)">
            <g id="Group" transform="translate(218.000000, 517.000000)">
                <path d="M180.354298,5.97622769 L168.675893,0.431274163 C167.402683,-0.184831784 165.866051,-0.140824217 164.592842,0.563296866 C163.319632,1.26741795 162.48546,2.54363741 162.309845,3.95187958 L156.031605,57.1130213 L130.655221,28.2000494 L130.567413,28.1120342 C130.523509,28.0680267 130.435702,27.9800115 130.391798,27.9360039 L130.30399,27.8479888 C130.216183,27.7599737 130.128375,27.6719585 129.996664,27.5839434 L129.95276,27.5399358 L129.908856,27.4959283 C129.557626,27.2318829 129.162492,27.0558526 128.723454,26.9238299 C128.679551,26.9238299 128.635647,26.8798223 128.591743,26.8798223 C128.503935,26.8358148 128.416128,26.8358148 128.372224,26.8358148 L128.196609,26.7918072 C128.152705,26.7918072 128.152705,26.7918072 128.152705,26.7918072 C128.064898,26.7918072 127.933186,26.7477996 127.845379,26.7477996 C127.801475,26.7477996 127.757571,26.7477996 127.669764,26.7477996 C127.581956,26.7477996 127.494149,26.7477996 127.450245,26.7477996 L55.5797589,26.7477996 L55.5358551,26.7477996 L55.4919513,26.7477996 C55.4041438,26.7477996 55.3163362,26.7477996 55.2724324,26.7477996 C55.2285287,26.7477996 55.1407211,26.7477996 55.0968173,26.7477996 C55.0090098,26.7477996 54.9212022,26.7918072 54.7894909,26.7918072 C54.7455871,26.7918072 54.7016833,26.7918072 54.7016833,26.7918072 L54.6138758,26.7918072 C54.5260682,26.7918072 54.4821644,26.8358148 54.3504531,26.8798223 C54.3065493,26.8798223 54.2626455,26.9238299 54.174838,26.9238299 C53.7358002,27.0558526 53.2967624,27.2758904 52.9455322,27.5839434 L52.8577246,27.627951 C52.769917,27.7159661 52.6821095,27.7599737 52.5943019,27.8479888 C52.5503982,27.8919964 52.5503982,27.8919964 52.5064944,27.9360039 C52.4625906,27.9800115 52.374783,28.0680267 52.3308793,28.1120342 L26.8666876,57.1130213 L20.5884472,3.95187958 C20.4128321,2.54363741 19.5786603,1.26741795 18.3054507,0.563296866 C17.0322411,-0.140824217 15.5395127,-0.184831784 14.2223993,0.431274163 L2.54399414,5.97622769 C0.787842987,6.81237147 -0.221943924,8.66068931 0.0414787484,10.5970223 L12.290633,106.621535 L1.88543746,115.423048 C0.656131651,116.47923 0.0853825271,118.10751 0.392708978,119.691783 L8.99784962,164.887554 C9.26127229,166.251789 10.1393479,167.439993 11.4125574,168.056099 L33.935196,179.278029 L74.2388649,212.943818 C74.2827686,212.987826 74.3705762,213.031834 74.41448,213.075841 C74.5022875,213.163856 74.6339989,213.207864 74.7218064,213.295879 C74.809614,213.339886 74.8974215,213.383894 74.9413253,213.427902 C75.0730367,213.515917 75.204748,213.559924 75.3803631,213.647939 C75.4681707,213.691947 75.5559782,213.735955 75.6437858,213.735955 C75.8194009,213.779962 75.995016,213.82397 76.1267274,213.867977 C76.2145349,213.867977 76.2584387,213.911985 76.3462462,213.911985 C76.6096689,213.955992 76.8730916,214 77.0926105,214 L105.937393,214 C106.200816,214 106.420335,213.955992 106.683757,213.911985 C106.771565,213.911985 106.815469,213.867977 106.903276,213.867977 C107.034988,213.82397 107.210603,213.779962 107.386218,213.735955 C107.474025,213.691947 107.561833,213.691947 107.649641,213.647939 C107.781352,213.603932 107.913063,213.515917 108.044775,213.471909 C108.132582,213.427902 108.22039,213.383894 108.308197,213.295879 C108.396005,213.251871 108.527716,213.163856 108.615524,213.075841 L108.703331,213.031834 L149.094808,179.278029 L171.617446,168.056099 C172.846752,167.439993 173.768731,166.251789 174.032154,164.887554 L182.637295,119.691783 C182.944621,118.10751 182.373872,116.47923 181.144566,115.423048 L170.739371,106.621535 L182.988525,10.5970223 C183.120236,8.66068931 182.110449,6.81237147 180.354298,5.97622769 Z" id="Path" stroke="#FF8100" stroke-width="4" fill-rule="nonzero"></path>
                <g transform="translate(2.000000, 2.000000)">
                    <polygon id="Path" fill="#C2C1C0" fill-rule="nonzero" points="34.2205882 150.874214 36.7651961 172.27044 64.6242647 195.603774 56.3762255 167.779874"></polygon>
                    <polygon id="Path" fill="#969696" fill-rule="nonzero" points="33.8257353 147.572327 34.2205882 150.874214 56.3762255 167.779874 64.6242647 195.603774 70.4154412 200.446541 59.4473039 164.477987"></polygon>
                    <path d="M90.1580882,123.974843 L86.8237745,123.974843 C86.6044118,123.974843 86.385049,123.930818 86.2095588,123.886792 L82.1732843,122.786164 L70.4154412,130.798742 L47.2946078,121.465409 L46.5487745,113.188679 L45.5397059,112.924528 L43.9602941,112.484277 C43.6970588,112.440252 43.4776961,112.308176 43.2583333,112.176101 L28.5171569,102.666667 L31.1495098,124.855346 L64.404902,145.018868 L88.9296569,129.698113 C89.2806373,129.477987 89.7193627,129.345912 90.1580882,129.345912 C90.1580882,129.345912 90.1580882,129.345912 90.1580882,129.345912 L90.1580882,123.974843 L90.1580882,123.974843 Z" id="Path" fill="#C2C1C0" fill-rule="nonzero"></path>
                    <path d="M135.829412,112.220126 C135.610049,112.352201 135.390686,112.484277 135.127451,112.528302 L133.284804,113.012579 L132.582843,113.188679 L131.83701,121.465409 L108.716176,130.798742 L96.7828431,122.698113 L92.1762255,123.930818 C91.9568627,123.974843 91.7813725,124.018868 91.5620098,124.018868 L90.2019608,124.018868 L90.2019608,129.433962 C90.2019608,129.433962 90.2019608,129.433962 90.2019608,129.433962 C90.3335784,129.433962 90.4651961,129.433962 90.5529412,129.433962 C90.5529412,129.433962 90.5529412,129.433962 90.5529412,129.433962 C90.6845588,129.433962 90.7723039,129.477987 90.9039216,129.522013 C90.9039216,129.522013 90.9039216,129.522013 90.9477941,129.522013 C91.0355392,129.566038 91.1671569,129.566038 91.254902,129.610063 C91.254902,129.610063 91.2987745,129.610063 91.2987745,129.610063 C91.4303922,129.654088 91.5181373,129.698113 91.6058824,129.786164 L114.726716,145.018868 L147.938235,124.855346 L150.570588,102.666667 L135.829412,112.220126 Z" id="Path" fill="#C2C1C0" fill-rule="nonzero"></path>
                    <polygon id="Path" fill="#969696" fill-rule="nonzero" points="70.3715686 130.798742 82.1294118 122.830189 46.504902 113.232704 47.2068627 121.509434"></polygon>
                    <polygon id="Path" fill="#969696" fill-rule="nonzero" points="131.83701 121.509434 132.582843 113.232704 96.7389706 122.698113 108.716176 130.798742"></polygon>
                    <path d="M64.0539216,154.968553 L31.9392157,131.943396 L33.0360294,141.232704 L62.8254902,160.91195 C63.3080882,161.220126 63.6590686,161.704403 63.8345588,162.232704 L76.9085784,205.157233 L89.6754902,205.157233 L89.6754902,139.427673 L64.0539216,154.968553 Z" id="Path" fill="#969696" fill-rule="nonzero"></path>
                    <path d="M89.7193627,139.427673 L89.7193627,135.069182 L65.7210784,150.037736 C65.3262255,150.301887 64.8875,150.389937 64.4487745,150.389937 C64.010049,150.389937 63.5713235,150.257862 63.1764706,150.037736 L31.8953431,131.062893 L31.9830882,131.899371 L64.0539216,154.968553 L89.7193627,139.427673 Z" id="Path" fill="#ABA9A6" fill-rule="nonzero"></path>
                    <path d="M115.911275,150.081761 C115.121569,150.566038 114.1125,150.566038 113.322794,150.037736 L90.2019608,134.805031 L89.7193627,135.113208 L89.7193627,139.471698 L89.8948529,139.383648 L115.691912,155.628931 L146.973039,133.132075 L147.192402,131.106918 L115.911275,150.081761 Z" id="Path" fill="#969696" fill-rule="nonzero"></path>
                    <path d="M89.8509804,139.339623 L89.6754902,139.427673 L89.6754902,205.157233 L102.091422,205.157233 L115.165441,162.232704 C115.340931,161.704403 115.691912,161.220126 116.17451,160.91195 L145.963971,141.232704 L146.929167,133.132075 L115.648039,155.628931 L89.8509804,139.339623 Z" id="Path" fill="#ABA9A6" fill-rule="nonzero"></path>
                    <polygon id="Path" fill="#C2C1C0" fill-rule="nonzero" points="115.297059 194.899371 142.322549 172.27044 144.647794 152.679245 122.71152 167.163522"></polygon>
                    <polygon id="Path" fill="#969696" fill-rule="nonzero" points="119.596569 164.477987 108.672304 200.446541 115.297059 194.899371 122.71152 167.163522 144.647794 152.679245 145.218137 147.572327"></polygon>
                    <path d="M150.570588,96.8993711 C150.789951,96.7672956 151.009314,96.6352201 151.272549,96.591195 L154.870098,66.2138365 C154.606863,66.081761 154.3875,65.9056604 154.21201,65.6855346 L143.682598,53.7106918 C140.918627,67.9748428 136.355882,94.6981132 134.206127,107.465409 L150.570588,96.8993711 Z" id="Path" fill="#969696" fill-rule="nonzero"></path>
                    <path d="M133.504167,107.90566 L134.206127,107.465409 C136.355882,94.6981132 140.874755,67.9748428 143.682598,53.7106918 L126.703922,34.3836478 L108.277451,114.597484 L133.504167,107.90566 Z" id="Path" fill="#C2C1C0" fill-rule="nonzero"></path>
                    <path d="M152.062255,163.113208 L152.632598,159.459119 L152.632598,159.459119 L152.983578,157.213836 L152.983578,157.213836 L153.202941,155.893082 L153.202941,155.893082 L153.553922,153.647799 L153.773284,152.327044 L153.773284,152.327044 L154.124265,150.081761 L154.343627,148.761006 L154.694608,146.515723 L154.694608,146.515723 L154.913971,145.194969 L155.264951,142.949686 L155.484314,141.628931 L155.484314,141.628931 L155.835294,139.383648 L156.054657,138.062893 L156.054657,138.062893 L156.405637,135.81761 L156.625,134.496855 L156.97598,132.251572 L157.283088,130.446541 L157.546324,128.685535 L157.765686,127.36478 L158.116667,125.119497 L158.116667,125.119497 L158.292157,124.018868 L158.555392,122.213836 L159.169608,118.207547 L154.782353,109.842767 L154.650735,109.842767 L152.720343,126.08805 C152.720343,126.352201 152.720343,126.616352 152.632598,126.836478 L147.631127,169.144654 L151.842892,167.031447 L152.50098,162.716981 L152.062255,163.113208 Z" id="Path" fill="#969696" fill-rule="nonzero"></path>
                    <polygon id="Path" fill="#C2C1C0" fill-rule="nonzero" points="157.151471 109.710692 154.73848 110.018868 159.125735 118.339623 158.467647 122.389937 158.555392 121.949686 158.555392 121.949686 167.900245 121.949686 167.46152 124.150943 158.248284 124.150943 158.204412 124.150943 158.028922 125.251572 158.072794 125.251572 167.242157 125.251572 166.803431 127.496855 157.721814 127.496855 157.677941 127.496855 157.458578 128.81761 157.546324 128.81761 166.540196 128.81761 166.101471 131.062893 157.195343 131.062893 157.107598 131.062893 157.195343 130.578616 156.888235 132.383648 157.019853 132.383648 165.838235 132.383648 165.39951 134.584906 156.668873 134.584906 156.537255 134.584906 156.361765 135.949686 156.493382 135.949686 165.136275 135.949686 164.697549 138.150943 156.142402 138.150943 156.010784 138.150943 155.791422 139.471698 155.923039 139.471698 164.434314 139.471698 163.995588 141.716981 155.615931 141.716981 155.440441 141.716981 155.221078 143.037736 155.396569 143.037736 163.732353 143.037736 163.293627 145.283019 155.089461 145.283019 154.870098 145.283019 154.650735 146.603774 154.870098 146.603774 163.030392 146.603774 162.591667 148.805031 154.519118 148.805031 154.299755 148.805031 154.124265 150.125786 154.343627 150.125786 162.328431 150.125786 161.889706 152.371069 153.992647 152.371069 153.773284 152.371069 153.553922 153.691824 153.817157 153.691824 161.626471 153.691824 161.187745 155.937107 153.466176 155.937107 153.202941 155.937107 152.983578 157.257862 153.290686 157.257862 160.92451 157.257862 160.617402 158.930818 159.520588 159.459119 159.520588 159.459119 152.939706 159.459119 152.632598 159.459119 152.062255 163.113208 152.413235 162.937107 151.755147 167.251572 165.443382 160.427673 173.559804 117.811321 163.205882 109.050314"></polygon>
                    <polygon id="Path" fill="#C2C1C0" fill-rule="nonzero" points="157.809559 104.735849 161.801961 104.295597 173.866912 9.46540881 170.22549 7.74842767"></polygon>
                    <polygon id="Path" fill="#969696" fill-rule="nonzero" points="166.891176 6.16352201 155.177206 105.044025 157.809559 104.735849 170.22549 7.74842767"></polygon>
                    <path d="M26.4112745,126.264151 L24.5247549,110.371069 L20.4446078,118.163522 L21.0588235,122.125786 L21.2781863,123.534591 L21.4536765,124.63522 L21.7169118,126.264151 L22.0240196,128.157233 L22.1117647,128.685535 L22.5943627,131.72327 L22.7259804,132.515723 L23.2085784,135.553459 L23.5156863,137.490566 L23.9544118,140.220126 L24.0860294,141.056604 L24.4808824,143.477987 L24.6563725,144.578616 L24.8757353,145.899371 L25.2267157,148.144654 L25.4460784,149.465409 L25.6215686,150.566038 L26.0164216,152.987421 L26.2357843,154.396226 L26.5867647,156.553459 L26.9377451,158.798742 L27.5080882,162.45283 L27.0254902,162.232704 L27.8151961,167.471698 L31.5882353,169.36478 L26.5867647,127.056604 C26.4112745,126.792453 26.4112745,126.528302 26.4112745,126.264151 Z" id="Path" fill="#969696" fill-rule="nonzero"></path>
                    <path d="M75.8995098,116.09434 L87.1308824,119.132075 L91.2110294,119.132075 L103.144363,115.962264 C103.10049,115.654088 103.10049,115.345912 103.188235,115.037736 L122.360539,31.6540881 L96.695098,31.6540881 L80.8132353,31.6540881 L56.7272059,31.6540881 L75.8995098,115.037736 C75.9872549,115.389937 75.9872549,115.742138 75.8995098,116.09434 Z" id="Path" fill="#969696" fill-rule="nonzero"></path>
                    <g id="Group-3" transform="translate(70.000000, 38.000000)" fill="#C2C1C0">
                        <path d="M27.143481,0.885298089 C26.7962552,0.766145546 26.4389649,0.640721818 26.0665778,0.533484529 C20.1454972,-1.21554937 16.8525133,1.64850148 15.9787875,4.60348453 C14.7785939,8.64024724 16.8235778,11.4064676 22.1194004,15.4745862 C28.6135294,20.4601794 31.3013843,25.0914506 29.4180617,31.4429083 C28.8626262,33.3217557 27.9322875,35.0087049 26.6591262,36.4034167 C31.9065133,34.2724676 36.1782714,29.8638235 37.9106262,24.020332 C40.7104488,14.5953659 35.9449004,4.73392521 27.143481,0.885298089" id="Fill-1"></path>
                        <path d="M17.9375939,19.1940269 C11.6076423,14.6122981 8.31591652,9.65931504 10.1218681,3.57375572 C10.391723,2.67133199 10.7509004,1.830993 11.192481,1.05775572 C6.33635201,3.31036589 2.44138427,7.55156928 0.801497168,13.0733489 C-0.911986703,18.8397049 0.207061685,24.7640947 3.34593265,29.3840777 C5.51106168,32.022993 7.60636814,34.0065693 11.8598843,35.1780269 C17.6193036,36.7627557 22.2653359,34.5584337 23.5573681,30.1980777 C24.7575617,26.1606879 23.1296262,23.1718405 17.9375939,19.1940269" id="Fill-3"></path>
                    </g>
                    <polygon id="Path" fill="#969696" fill-rule="nonzero" points="23.8666667 105.044025 12.1965686 6.16352201 8.68676471 7.83647799 21.1026961 104.735849"></polygon>
                    <polygon id="Path" fill="#C2C1C0" fill-rule="nonzero" points="21.1026961 104.735849 8.68676471 7.83647799 5.17696078 9.46540881 17.2857843 104.295597"></polygon>
                    <path d="M45.5397059,107.90566 L70.8102941,114.685535 L52.339951,34.3396226 L35.1419118,53.9308176 C37.9058824,68.1949686 42.3808824,94.4779874 44.5306373,107.245283 L45.5397059,107.90566 Z" id="Path" fill="#C2C1C0" fill-rule="nonzero"></path>
                    <path d="M28.4732843,96.8993711 L44.5306373,107.245283 C42.3808824,94.4779874 37.9058824,68.1949686 35.1419118,53.9308176 L24.8318627,65.6415094 C24.6563725,65.8616352 24.3931373,66.0377358 24.1737745,66.1698113 L27.7713235,96.5471698 C28.0345588,96.6792453 28.2539216,96.7672956 28.4732843,96.8993711 Z" id="Path" fill="#969696" fill-rule="nonzero"></path>
                    <path d="M177.552206,5.81132075 L170.883578,2.64150943 L165.882108,0.264150943 C165.180147,-0.0880503145 164.346569,-0.0440251572 163.644608,0.352201258 C162.942647,0.748427673 162.503922,1.40880503 162.416176,2.20125786 L155.572059,59.918239 L144.867157,47.7232704 L127.18652,27.6037736 C127.142647,27.5597484 127.098775,27.5157233 127.054902,27.4716981 C127.054902,27.4716981 127.011029,27.427673 127.011029,27.427673 C126.967157,27.3836478 126.879412,27.3396226 126.835539,27.2955975 C126.616176,27.163522 126.396814,27.0314465 126.177451,26.9433962 C126.133578,26.9433962 126.133578,26.9433962 126.089706,26.9433962 C126.045833,26.9433962 126.001961,26.8993711 125.958088,26.8993711 C125.914216,26.8993711 125.914216,26.8993711 125.870343,26.8993711 C125.826471,26.8993711 125.782598,26.8993711 125.694853,26.8553459 C125.65098,26.8553459 125.65098,26.8553459 125.607108,26.8553459 C125.563235,26.8553459 125.47549,26.8553459 125.431618,26.8553459 L95.2034314,26.8553459 C95.174183,26.8553459 81.3397059,26.8553459 53.7,26.8553459 C53.6561275,26.8553459 53.5683824,26.8553459 53.5245098,26.8553459 C53.4806373,26.8553459 53.4806373,26.8553459 53.4367647,26.8553459 C53.3928922,26.8553459 53.3490196,26.8553459 53.2612745,26.8993711 C53.217402,26.8993711 53.217402,26.8993711 53.1735294,26.8993711 C53.1296569,26.8993711 53.0857843,26.9433962 53.0419118,26.9433962 C52.9980392,26.9433962 52.9980392,26.9433962 52.9541667,26.9874214 C52.6909314,27.0754717 52.4715686,27.2075472 52.2960784,27.3396226 C52.2522059,27.3836478 52.1644608,27.427673 52.1205882,27.4716981 C52.1205882,27.4716981 52.0767157,27.5157233 52.0767157,27.5157233 C52.0328431,27.5597484 51.9889706,27.6037736 51.945098,27.6477987 L34.045098,48.0314465 L23.5595588,59.9622642 L16.6276961,2.20125786 C16.539951,1.40880503 16.0573529,0.748427673 15.3992647,0.352201258 C14.6973039,-0.0440251572 13.907598,-0.0440251572 13.1617647,0.264150943 L8.02867647,2.72955975 L1.53553922,5.81132075 C0.570343137,6.25157233 0.043872549,7.26415094 0.175490196,8.32075472 L12.547549,105.484277 L1.31617647,114.993711 C0.658088235,115.566038 0.307107843,116.446541 0.482598039,117.327044 L9.08161765,162.540881 C9.21323529,163.289308 9.69583333,163.949686 10.3977941,164.257862 L33.1237745,175.572327 L73.5742647,209.427673 C73.5742647,209.427673 73.6181373,209.471698 73.6181373,209.471698 C73.6620098,209.515723 73.7497549,209.559748 73.8375,209.603774 C73.8813725,209.647799 73.9252451,209.647799 73.9691176,209.691824 C74.0568627,209.735849 74.1007353,209.779874 74.1884804,209.779874 C74.2323529,209.779874 74.2762255,209.823899 74.320098,209.823899 C74.4078431,209.867925 74.4955882,209.867925 74.6272059,209.91195 C74.6710784,209.91195 74.714951,209.91195 74.714951,209.955975 C74.8465686,210 74.9781863,210 75.1098039,210 L103.890196,210 C104.021814,210 104.153431,210 104.285049,209.955975 C104.328922,209.955975 104.372794,209.955975 104.372794,209.91195 C104.460539,209.91195 104.548284,209.867925 104.636029,209.823899 C104.679902,209.823899 104.723775,209.779874 104.767647,209.779874 C104.855392,209.735849 104.899265,209.735849 104.98701,209.691824 C105.030882,209.647799 105.074755,209.647799 105.118627,209.603774 C105.206373,209.559748 105.250245,209.515723 105.33799,209.471698 C105.33799,209.471698 105.381863,209.427673 105.381863,209.427673 L145.832353,175.572327 L168.558333,164.257862 C169.260294,163.90566 169.742892,163.289308 169.87451,162.540881 L178.473529,117.327044 C178.64902,116.446541 178.341912,115.566038 177.639951,114.993711 L166.408578,105.484277 L178.780637,8.32075472 C179.043873,7.26415094 178.517402,6.25157233 177.552206,5.81132075 Z M126.703922,34.3836478 L143.682598,53.7106918 L154.21201,65.6855346 C154.3875,65.9056604 154.650735,66.081761 154.870098,66.2138365 L151.272549,96.591195 C151.009314,96.6352201 150.789951,96.7672956 150.570588,96.8993711 L134.206127,107.465409 L133.504167,107.90566 L108.233578,114.597484 L126.703922,34.3836478 Z M147.894363,124.943396 L114.682843,145.106918 L91.5620098,129.874214 C91.4742647,129.786164 91.3426471,129.742138 91.254902,129.698113 C91.254902,129.698113 91.2110294,129.698113 91.2110294,129.698113 C91.1232843,129.654088 91.0355392,129.610063 90.9039216,129.610063 C90.9039216,129.610063 90.9039216,129.610063 90.860049,129.610063 C90.7284314,129.566038 90.6406863,129.566038 90.5090686,129.522013 C90.377451,129.522013 90.2458333,129.522013 90.1580882,129.522013 C89.7193627,129.522013 89.3245098,129.654088 88.9296569,129.874214 L64.404902,145.194969 L31.1495098,125.031447 L28.5171569,102.842767 L43.2583333,112.352201 C43.4776961,112.484277 43.6970588,112.572327 43.9602941,112.660377 L45.5397059,113.100629 L46.5487745,113.36478 L82.1732843,122.962264 L86.2095588,124.062893 C86.4289216,124.106918 86.6482843,124.150943 86.8237745,124.150943 L90.1580882,124.150943 L91.5181373,124.150943 C91.7375,124.150943 91.9568627,124.106918 92.1323529,124.062893 L96.7389706,122.830189 L132.538971,113.36478 L133.240931,113.188679 L135.083578,112.704403 C135.346814,112.660377 135.566176,112.528302 135.785539,112.396226 L150.526716,102.886792 L147.894363,124.943396 Z M80.8132353,31.6540881 L96.695098,31.6540881 L122.360539,31.6540881 L103.188235,115.037736 C103.10049,115.345912 103.10049,115.654088 103.144363,115.962264 L91.2110294,119.132075 L87.1308824,119.132075 L75.8995098,116.09434 C75.9872549,115.742138 75.9872549,115.389937 75.8995098,115.037736 L56.7272059,31.6540881 L80.8132353,31.6540881 Z M24.8757353,65.6855346 L35.1857843,53.9748428 L52.3838235,34.3836478 L70.8541667,114.72956 L45.5835784,107.949686 L44.5745098,107.289308 L28.5171569,96.9433962 C28.2977941,96.8113208 28.0784314,96.6792453 27.8151961,96.6352201 L24.2176471,66.2578616 C24.4370098,66.081761 24.6563725,65.9056604 24.8757353,65.6855346 Z M5.17696078,9.46540881 L8.64289216,7.79245283 L12.1526961,6.11949686 L23.8666667,105 L21.0588235,104.691824 L17.2419118,104.251572 L5.17696078,9.46540881 Z M27.727451,167.471698 L13.6443627,160.471698 L5.52794118,117.855346 L15.8818627,109.09434 L21.7607843,109.754717 L24.5247549,110.062893 L24.5686275,110.459119 L26.4551471,126.352201 C26.4551471,126.616352 26.4551471,126.880503 26.5428922,127.100629 L31.5443627,169.408805 L27.727451,167.471698 Z M64.6242647,195.603774 L36.7651961,172.314465 L34.2205882,150.874214 L33.8257353,147.572327 L59.4473039,164.477987 L70.4154412,200.446541 L64.6242647,195.603774 Z M142.322549,172.27044 L115.297059,194.899371 L108.672304,200.446541 L119.640441,164.477987 L145.26201,147.572327 L144.647794,152.679245 L142.322549,172.27044 Z M145.963971,141.232704 L116.17451,160.91195 C115.691912,161.220126 115.340931,161.704403 115.165441,162.232704 L102.091422,205.157233 L89.6754902,205.157233 L76.9085784,205.157233 L63.8345588,162.232704 C63.6590686,161.704403 63.3080882,161.220126 62.8254902,160.91195 L33.0360294,141.232704 L31.9392157,131.943396 L31.8514706,131.106918 L63.132598,150.081761 C63.527451,150.301887 63.9661765,150.433962 64.404902,150.433962 C64.8436275,150.433962 65.2823529,150.301887 65.6772059,150.081761 L89.6754902,135.113208 L90.1580882,134.805031 L113.278922,150.037736 C114.068627,150.566038 115.077696,150.566038 115.867402,150.081761 L147.148529,131.106918 L146.929167,133.132075 L145.963971,141.232704 Z M173.559804,117.811321 L165.443382,160.427673 L151.755147,167.251572 L147.543382,169.36478 L152.544853,127.056604 C152.632598,126.792453 152.632598,126.572327 152.632598,126.308176 L154.56299,110.062893 L154.694608,110.062893 L157.151471,109.798742 L163.16201,109.138365 L173.559804,117.811321 Z M161.801961,104.295597 L157.809559,104.735849 L155.177206,105.044025 L166.891176,6.16352201 L170.269363,7.74842767 L173.910784,9.46540881 L161.801961,104.295597 Z" id="Shape" fill="#1B2653" fill-rule="nonzero"></path>
                    <path d="M91.2110294,129.654088 C91.1232843,129.610063 91.0355392,129.566038 90.9039216,129.566038" id="Path" stroke="#303030" stroke-width="0.5" stroke-linecap="round" stroke-linejoin="round"></path>
                    <path d="M91.5620098,129.830189 C91.4742647,129.742138 91.3426471,129.698113 91.254902,129.654088" id="Path" stroke="#303030" stroke-width="0.5" stroke-linecap="round" stroke-linejoin="round"></path>
                    <path d="M90.1580882,129.433962 C90.2897059,129.433962 90.4213235,129.433962 90.5090686,129.433962" id="Path" stroke="#303030" stroke-width="0.5" stroke-linecap="round" stroke-linejoin="round"></path>
                    <path d="M90.860049,129.522013 C90.7284314,129.477987 90.6406863,129.477987 90.5090686,129.433962" id="Path" stroke="#303030" stroke-width="0.5" stroke-linecap="round" stroke-linejoin="round"></path>
                    <polygon id="Path" fill="#C2C1C0" fill-rule="nonzero" points="27.4203431 162.45283 26.85 158.842767 26.4112745 158.842767 19.9620098 158.842767 19.9620098 158.842767 18.8651961 158.314465 18.5142157 156.597484 26.1041667 156.597484 26.4990196 156.597484 26.1480392 154.484277 26.2796569 155.27673 25.8848039 155.27673 18.2509804 155.27673 17.8122549 153.075472 25.5338235 153.075472 25.9286765 153.075472 25.5338235 150.610063 25.7093137 151.710692 25.3583333 151.710692 17.5490196 151.710692 17.1102941 149.509434 25.0073529 149.509434 25.3583333 149.509434 25.1389706 148.188679 24.8318627 148.188679 16.8470588 148.188679 16.4522059 145.943396 24.4808824 145.943396 24.7879902 145.943396 24.6125 144.622642 24.3053922 144.622642 16.1889706 144.622642 15.7502451 142.377358 23.9544118 142.377358 24.2615196 142.377358 24.4370098 143.522013 24.0421569 141.056604 23.735049 141.056604 15.4870098 141.056604 15.0482843 138.855346 23.4279412 138.855346 23.6911765 138.855346 23.9105392 140.264151 23.4718137 137.534591 23.2085784 137.534591 14.785049 137.534591 14.3463235 135.289308 22.9014706 135.289308 23.1208333 135.289308 23.1647059 135.597484 22.6821078 132.559748 22.9014706 133.968553 22.6821078 133.968553 14.0830882 133.968553 13.6443627 131.72327 22.3311275 131.72327 22.5504902 131.72327 22.0678922 128.685535 22.375 130.402516 22.1556373 130.402516 13.3811275 130.402516 12.942402 128.201258 21.8046569 128.201258 22.0240196 128.201258 21.7169118 126.264151 21.8046569 126.836478 21.6291667 126.836478 12.6791667 126.836478 12.2404412 124.63522 21.2781863 124.63522 21.4536765 124.63522 21.2781863 123.534591 21.1026961 123.534591 12.0210784 123.534591 11.5823529 121.289308 20.7955882 121.289308 20.9272059 121.289308 21.0588235 122.125786 20.4446078 118.163522 24.5247549 110.415094 24.4808824 110.018868 21.7169118 109.710692 15.8818627 109.050314 5.48406863 117.811321 13.6004902 160.427673 27.727451 167.471698 26.9377451 162.232704"></polygon>
                    <polygon id="Path" fill="#1B2653" fill-rule="nonzero" points="20.7955882 121.289308 11.5823529 121.289308 12.0210784 123.534591 21.1026961 123.534591 21.2781863 123.534591 21.0588235 122.125786 20.9272059 121.289308"></polygon>
                    <polygon id="Path" fill="#1B2653" fill-rule="nonzero" points="12.2404412 124.63522 12.6791667 126.836478 21.6291667 126.836478 21.8046569 126.836478 21.7169118 126.264151 21.4536765 124.63522 21.2781863 124.63522"></polygon>
                    <polygon id="Path" fill="#1B2653" fill-rule="nonzero" points="12.942402 128.201258 13.3811275 130.402516 22.1556373 130.402516 22.375 130.402516 22.0678922 128.685535 22.0240196 128.201258 21.8046569 128.201258"></polygon>
                    <polygon id="Path" fill="#1B2653" fill-rule="nonzero" points="13.6443627 131.72327 14.0830882 133.968553 22.6821078 133.968553 22.9014706 133.968553 22.6821078 132.559748 22.5504902 131.72327 22.3311275 131.72327"></polygon>
                    <polygon id="Path" fill="#1B2653" fill-rule="nonzero" points="22.9014706 135.289308 14.3463235 135.289308 14.785049 137.534591 23.2085784 137.534591 23.4718137 137.534591 23.1647059 135.597484 23.1208333 135.289308"></polygon>
                    <polygon id="Path" fill="#1B2653" fill-rule="nonzero" points="23.4279412 138.855346 15.0482843 138.855346 15.4870098 141.056604 23.735049 141.056604 24.0421569 141.056604 23.9105392 140.264151 23.6911765 138.855346"></polygon>
                    <polygon id="Path" fill="#1B2653" fill-rule="nonzero" points="23.9544118 142.377358 15.7502451 142.377358 16.1889706 144.622642 24.3053922 144.622642 24.6125 144.622642 24.4370098 143.522013 24.2615196 142.377358"></polygon>
                    <polygon id="Path" fill="#1B2653" fill-rule="nonzero" points="16.4522059 145.943396 16.8470588 148.188679 24.8318627 148.188679 25.1389706 148.188679 24.7879902 145.943396 24.4808824 145.943396"></polygon>
                    <polygon id="Path" fill="#1B2653" fill-rule="nonzero" points="17.1102941 149.509434 17.5490196 151.710692 25.3583333 151.710692 25.7093137 151.710692 25.5338235 150.610063 25.3583333 149.509434 25.0073529 149.509434"></polygon>
                    <polygon id="Path" fill="#1B2653" fill-rule="nonzero" points="17.8122549 153.075472 18.2509804 155.27673 25.8848039 155.27673 26.2796569 155.27673 26.1480392 154.484277 25.9286765 153.075472 25.5338235 153.075472"></polygon>
                    <polygon id="Path" fill="#1B2653" fill-rule="nonzero" points="18.5142157 156.597484 18.8651961 158.314465 19.9620098 158.842767 19.9620098 158.842767 26.4112745 158.842767 26.85 158.842767 26.4990196 156.597484 26.1041667 156.597484"></polygon>
                    <polygon id="Path" fill="#1B2653" fill-rule="nonzero" points="158.248284 124.150943 167.46152 124.150943 167.900245 121.949686 158.555392 121.949686 158.555392 121.949686 158.467647 122.389937 158.204412 124.150943"></polygon>
                    <polygon id="Path" fill="#1B2653" fill-rule="nonzero" points="157.677941 127.496855 157.721814 127.496855 166.803431 127.496855 167.242157 125.251572 158.072794 125.251572 158.028922 125.251572 158.028922 125.251572"></polygon>
                    <polygon id="Path" fill="#1B2653" fill-rule="nonzero" points="157.107598 131.062893 157.195343 131.062893 166.101471 131.062893 166.540196 128.81761 157.546324 128.81761 157.458578 128.81761 157.195343 130.578616"></polygon>
                    <polygon id="Path" fill="#1B2653" fill-rule="nonzero" points="156.668873 134.584906 165.39951 134.584906 165.838235 132.383648 157.019853 132.383648 156.888235 132.383648 156.537255 134.584906"></polygon>
                    <polygon id="Path" fill="#1B2653" fill-rule="nonzero" points="156.010784 138.150943 156.142402 138.150943 164.697549 138.150943 165.136275 135.949686 156.493382 135.949686 156.361765 135.949686"></polygon>
                    <polygon id="Path" fill="#1B2653" fill-rule="nonzero" points="155.440441 141.716981 155.615931 141.716981 163.995588 141.716981 164.434314 139.471698 155.923039 139.471698 155.791422 139.471698"></polygon>
                    <polygon id="Path" fill="#1B2653" fill-rule="nonzero" points="155.089461 145.283019 163.293627 145.283019 163.732353 143.037736 155.396569 143.037736 155.221078 143.037736 154.870098 145.283019"></polygon>
                    <polygon id="Path" fill="#1B2653" fill-rule="nonzero" points="154.299755 148.805031 154.519118 148.805031 162.591667 148.805031 163.030392 146.603774 154.870098 146.603774 154.650735 146.603774 154.650735 146.603774"></polygon>
                    <polygon id="Path" fill="#1B2653" fill-rule="nonzero" points="153.773284 152.371069 153.992647 152.371069 161.889706 152.371069 162.328431 150.125786 154.343627 150.125786 154.124265 150.125786"></polygon>
                    <polygon id="Path" fill="#1B2653" fill-rule="nonzero" points="153.202941 155.937107 153.466176 155.937107 161.187745 155.937107 161.626471 153.691824 153.817157 153.691824 153.553922 153.691824"></polygon>
                    <polygon id="Path" fill="#1B2653" fill-rule="nonzero" points="152.632598 159.459119 152.632598 159.459119 152.939706 159.459119 159.520588 159.459119 159.520588 159.459119 160.617402 158.930818 160.92451 157.257862 153.290686 157.257862 152.983578 157.257862 152.983578 157.257862"></polygon>
                </g>
            </g>
        </g>
    </g>
</svg>
