<?xml version="1.0" encoding="UTF-8"?>
<svg width="160px" height="178px" viewBox="0 0 160 178" version="1.1" xmlns="http://www.w3.org/2000/svg" xmlns:xlink="http://www.w3.org/1999/xlink">
    <g id="Page-2" stroke="none" stroke-width="1" fill="none" fill-rule="evenodd">
        <g id="Apple-TV-Copy-11" transform="translate(-880.000000, -354.000000)" fill="#E5E5E5" fill-rule="nonzero">
            <g id="Group-3" transform="translate(880.000000, 354.000000)">
                <g id="Group-2" transform="translate(56.000000, 33.000000)">
                    <g id="noun_Lighthouse_202335">
                        <g id="Group" transform="translate(0.153049, 0.420039)">
                            <polygon id="Path" points="41.1978191 84.7925515 4.79781823 100.332408 6.48105527 82.0625767 40.1457959 67.7827083"></polygon>
                            <path d="M43.9330792,124.482186 C39.7249867,125.11218 35.5168941,126.372168 32.15042,128.892145 C27.9423274,132.042116 25.4174719,136.872071 21.2093793,140.022042 C15.3180497,144.222004 7.53307841,143.802007 0.379321021,143.382011 L2.69377194,120.282224 L42.4602468,103.482379 L43.9330792,124.482186 Z" id="Path"></path>
                            <path d="M40.1457959,32.9230298 L38.0417496,32.9230298 L38.0417496,18.6431614 L40.1457959,18.6431614 C41.6186283,18.6431614 42.4602468,17.173175 41.6186283,15.9131866 L34.6752756,10.8732331 L28.7839459,2.26331246 C26.6798997,-0.676660427 22.2614024,-0.676660427 20.1573562,2.26331246 L14.0556219,10.8732331 L7.11226915,15.9131866 C6.27065064,17.173175 7.11226915,18.6431614 8.58510156,18.6431614 L10.6891478,18.6431614 L10.6891478,32.9230298 L8.58510156,32.9230298 C7.11226915,32.9230298 6.27065064,34.6030143 7.11226915,35.6530046 L10.4787432,40.6929581 L8.37469693,62.1127606 L38.6729635,49.3028787 L38.2521543,40.6929581 L41.6186283,35.6530046 C42.4602468,34.3930162 41.6186283,32.9230298 40.1457959,32.9230298 Z M31.7296108,32.9230298 L17.0012867,32.9230298 L17.0012867,18.6431614 L31.7296108,18.6431614 L31.7296108,32.9230298 Z" id="Shape"></path>
                        </g>
                    </g>
                </g>
                <path d="M80,0 C124.18278,0 160,35.3695048 160,79 C160,113.445517 137.675743,142.742101 106.535393,153.550441 L106.326448,151.192722 C136.271358,140.542342 157.681159,112.240181 157.681159,79 C157.681159,36.6341568 122.90212,2.28985507 80,2.28985507 C37.0978803,2.28985507 2.31884058,36.6341568 2.31884058,79 C2.31884058,111.881036 23.2684954,139.930182 52.7059341,150.841339 L52.4949383,153.206887 C21.8618676,142.131565 0,113.086926 0,79 C0,35.3695048 35.81722,0 80,0 Z" id="Combined-Shape"></path>
            </g>
        </g>
    </g>
</svg>
